<?xml version="1.0" standalone="no"?>
<svg xmlns="http://www.w3.org/2000/svg" viewBox="0 0 66.44 52.480000000000004" width="66.44" height="52.480000000000004"><rect fill="#000000" width="66.44" height="52.480000000000004" x="0" y="0"></rect><path fill="white" fill-rule="nonzero" d="M17.56 23.52L17.56 28.48L9.08 28.48Q4.28 28.48 2.14 26.62Q0 24.76 0 20.56L0 20.56L0 0L5.56 0L5.56 20.56Q5.56 22.24 6.32 22.88Q7.08 23.52 9.08 23.52L9.08 23.52L17.56 23.52ZM39.98 2.46Q42.44 4.92 42.44 9.68Q42.44 14.44 39.98 16.90Q37.52 19.36 33.04 19.36L33.04 19.36L27.56 19.36L27.56 28.48L22 28.48L22 0L33.04 0Q37.52 0 39.98 2.46ZM36.88 9.68L36.88 9.68Q36.88 4.96 32.76 4.96L32.76 4.96L27.56 4.96L27.56 14.36L32.76 14.36Q34.76 14.36 35.82 13.28Q36.88 12.20 36.88 9.68Z" transform="translate(12 12.001) scale(1)"></path></svg>